<?xml version="1.0" encoding="UTF-8" standalone="no"?><!DOCTYPE svg PUBLIC "-//W3C//DTD SVG 1.1//EN" "http://www.w3.org/Graphics/SVG/1.1/DTD/svg11.dtd"><svg width="100%" height="100%" viewBox="0 0 3334 996" version="1.1" xmlns="http://www.w3.org/2000/svg" xmlns:xlink="http://www.w3.org/1999/xlink" xml:space="preserve" xmlns:serif="http://www.serif.com/" style="fill-rule:evenodd;clip-rule:evenodd;stroke-linejoin:round;stroke-miterlimit:2;"><g id="fabric"><g><path d="M222.917,610.833c-29.583,2.917 -78.75,9.167 -109.167,14.167c-30.417,4.583 -57.083,8.333 -59.167,8.333c-2.5,0 -6.25,3.75 -8.75,8.75c-7.917,14.167 0.833,19.167 40.833,22.5c38.75,2.917 107.5,17.083 111.25,22.917c1.25,2.083 -8.75,7.083 -21.667,11.25c-18.75,5.833 -24.583,9.583 -25.417,16.667c-2.5,16.667 10,17.917 58.333,5.417l44.583,-11.667l28.333,19.583c43.75,30.833 43.75,31.667 12.917,40.833c-23.333,6.667 -26.25,9.167 -27.5,19.167c-2.083,17.917 11.25,17.917 70.417,0.417c7.5,-2.083 65,67.5 60,72.5c-1.25,1.667 -10.417,5.833 -20,9.167c-13.75,5 -17.917,8.75 -18.75,17.5c-1.667,14.583 9.167,17.917 32.5,9.583c27.917,-10 31.667,-8.75 50.417,19.583c23.75,35.417 41.25,53.333 52.083,53.333c15.833,0 17.083,-15.417 2.5,-30.833c-14.167,-15 -38.333,-50 -38.333,-55.833c0,-2.083 18.75,-7.083 41.25,-10.833l41.667,-7.5l32.917,33.75c33.75,34.167 50,42.917 61.25,33.75c10.417,-8.75 7.083,-15 -16.25,-32.917c-46.667,-36.25 -45,-39.583 22.917,-44.167l40.417,-2.917l22.083,17.5c37.917,30 65.833,38.75 72.083,22.5c3.75,-10 -1.667,-17.5 -15.417,-22.5c-7.5,-2.083 -18.75,-8.75 -25.833,-14.167l-12.5,-10l18.333,-3.75c21.667,-4.167 30,-13.75 21.25,-24.167c-5.833,-7.083 -31.667,-6.667 -60.833,0.417c-7.083,1.667 -13.333,-1.667 -26.25,-14.583c-21.667,-21.667 -21.25,-24.583 2.083,-26.25c47.083,-2.917 32.917,-28.333 -15.417,-28.333l-32.917,0l-10.417,-16.667c-12.917,-20.417 -12.917,-20 2.5,-21.667c32.083,-3.333 24.167,-28.333 -9.167,-28.333c-18.333,0 -21.25,-1.667 -37.917,-19.167c-30.833,-32.917 -77.5,-44.583 -224.167,-55.833c-64.167,-4.583 -56.25,-5 -127.083,2.5Zm122.083,39.167c29.167,12.5 27.5,15.417 -10.417,18.75c-17.917,1.667 -42.917,4.167 -55.417,6.25c-16.25,2.083 -25.833,1.667 -33.333,-2.083c-5.833,-2.917 -23.333,-9.167 -38.75,-14.583c-33.75,-10.833 -33.333,-12.083 6.25,-16.667c52.083,-5.833 106.667,-2.5 131.667,8.333Zm124.583,2.083c77.917,11.25 98.75,25.833 30,21.25c-54.167,-3.75 -71.25,-7.5 -85.417,-18.75l-11.25,-8.75l10.833,0c6.25,0 31.25,2.917 55.833,6.25Zm-28.333,67.083c12.083,12.917 21.25,24.167 20.417,24.583c-0.833,0.833 -24.167,3.75 -52.5,6.25l-50.833,5l-26.25,-24.167c-14.167,-12.917 -26.25,-25.417 -27.083,-27.083c-1.667,-3.75 24.167,-5.833 78.75,-7.083l36.25,-0.833l21.25,23.333Zm92.5,-12.5l36.25,2.5l8.75,15.833c4.583,8.75 8.75,16.667 8.75,18.333c0,1.25 -19.583,2.5 -43.333,2.5l-43.333,0l-15,-20.833c-18.333,-25.417 -18.333,-26.667 -1.25,-23.75c7.083,1.25 29.583,3.75 49.167,5.417Zm-45.417,75.417c8.333,10 32.5,50.417 32.5,54.583c0,2.083 -14.583,5.833 -32.083,8.75c-17.917,2.917 -37.083,5.833 -42.917,7.083c-9.167,2.083 -14.167,-2.083 -37.083,-31.667c-30.417,-39.167 -30.417,-38.333 9.167,-41.667c53.75,-5 63.75,-4.583 70.417,2.917Zm118.75,-3.75c5,1.667 16.667,12.5 25.833,24.583l17.083,21.25l-15.417,2.5c-8.75,1.25 -30,3.333 -47.083,4.583l-31.25,2.5l-12.083,-20c-7.083,-10.833 -15,-24.167 -18.333,-29.583l-5.833,-9.167l38.75,0.417c21.667,0.417 43.333,1.667 48.333,2.917Z" style="fill:#10b981;fill-rule:nonzero;"/></g></g><g id="plant"><g><clipPath id="_clip1"><rect x="13.528" y="14.179" width="628.152" height="595.599"/></clipPath><g clip-path="url(#_clip1)"><path d="M429.167,24.167c-121.25,44.167 -185.417,168.333 -144.167,280c5.833,15.833 6.25,21.667 1.667,38.333c-7.083,28.333 -10,25 -12.917,-14.583c-7.917,-111.25 -76.25,-181.25 -190.833,-195.417c-63.75,-7.917 -77.5,5.417 -65.417,63.333c25,118.333 87.5,177.917 196.25,186.25l32.5,2.5l6.25,15c12.917,30.417 17.917,62.5 20.417,135l2.917,73.75l-18.333,0c-59.583,0.417 -206.667,24.167 -212.083,34.167c-7.5,13.75 2.083,18.75 41.25,22.083c38.75,2.917 107.5,17.083 111.25,22.917c1.25,2.083 -8.333,7.083 -21.667,11.25c-42.083,13.333 -34.167,19.167 22.083,16.25c57.5,-2.5 50,-2.5 87.083,0.417c26.25,1.667 28.333,1.25 23.333,-4.583c-8.333,-10 -6.667,-10.417 54.167,-13.333l55.833,-2.5l10,10.833c12.083,12.917 56.667,17.5 46.25,4.583c-2.917,-3.75 -4.583,-7.083 -3.75,-8.333c3.333,-3.333 97.5,7.5 100.417,11.667c3.75,6.25 58.333,-0.417 65.833,-7.917c10.833,-10.833 0,-20 -25.417,-22.5c-20.417,-1.667 -24.583,-4.167 -39.167,-20c-27.917,-31.25 -90,-46.667 -213.333,-53.75l-42.5,-2.5l-2.083,-15c-19.583,-134.583 -1.25,-253.75 41.667,-269.167c100,-35.417 147.5,-106.25 147.5,-218.75c-0.417,-90.417 -11.667,-102.917 -75,-80Zm-84.167,625.833c29.167,12.5 27.5,15.417 -10.417,18.75c-17.917,1.667 -42.917,4.167 -55.417,6.25c-16.25,2.083 -25.833,1.667 -33.333,-2.083c-5.833,-2.917 -23.333,-9.167 -38.75,-14.583c-33.75,-10.833 -33.333,-12.083 6.25,-16.667c52.083,-5.833 106.667,-2.5 131.667,8.333Zm124.583,2.083c77.917,11.25 98.75,25.833 30,21.25c-54.167,-3.75 -71.25,-7.5 -85.417,-18.75l-11.25,-8.75l10.833,0c6.25,0 31.25,2.917 55.833,6.25Z" style="fill:#10b981;fill-rule:nonzero;"/></g></g></g><g id="people"><g><path d="M275,341.667c0,12.083 1.25,20.833 2.917,19.167c2.917,-2.917 2.083,-36.25 -1.25,-39.583c-0.833,-0.833 -1.667,8.333 -1.667,20.417Z" style="fill:#a7f3d0;fill-rule:nonzero;"/><path d="M360,351.667c-24.167,20.417 -8.333,60.833 23.75,60.833c29.167,0 44.167,-39.167 22.5,-60.417c-12.917,-13.333 -31.25,-13.333 -46.25,-0.417Z" style="fill:#a7f3d0;fill-rule:nonzero;"/><path d="M362.917,426.667c-18.75,10.417 -20.833,20.417 -21.25,101.25l0,75.833l-11.25,1.25c-6.667,1.25 3.333,2.083 21.25,2.5c18.333,0.417 41.25,1.667 51.25,3.333l17.917,2.5l0,-170.833l-12.917,-10.833c-13.75,-11.667 -29.583,-13.75 -45,-5Z" style="fill:#a7f3d0;fill-rule:nonzero;"/><path d="M455.417,445.833c-19.167,7.917 -22.917,28.75 -7.5,43.75c24.167,24.583 63.333,-8.75 40.833,-34.583c-9.167,-10.417 -21.25,-13.75 -33.333,-9.167Z" style="fill:#a7f3d0;fill-rule:nonzero;"/><path d="M267.917,500c0,12.5 0.833,17.917 1.667,11.25c0.833,-6.25 0.833,-16.25 0,-22.917c-0.833,-6.25 -1.667,-0.833 -1.667,11.667Z" style="fill:#a7f3d0;fill-rule:nonzero;"/><path d="M444.583,512.5c-10.833,8.75 -11.25,10 -11.25,54.167c0,32.5 -1.667,45.833 -5,46.667c-2.917,1.25 8.75,3.333 26.25,4.583c17.5,1.667 34.583,3.75 38.75,5.417c10.833,4.167 10,-98.333 -1.25,-108.333c-12.917,-11.667 -34.167,-12.917 -47.5,-2.5Z" style="fill:#a7f3d0;fill-rule:nonzero;"/><path d="M271.25,588.333c-0.417,14.583 -1.25,15.417 -15.833,17.083l-15.833,1.667l15.833,0.417c17.5,0.833 21.25,-3.75 18.333,-22.917c-1.25,-10 -1.667,-9.583 -2.5,3.75Z" style="fill:#a7f3d0;fill-rule:nonzero;"/><path d="M378.333,698.75c7.083,0.833 19.583,0.833 27.083,0c7.083,-0.833 1.25,-1.667 -13.75,-1.667c-15,0 -20.833,0.833 -13.333,1.667Z" style="fill:#a7f3d0;fill-rule:nonzero;"/><path d="M655.417,748.75c6.25,0.833 16.25,0.833 22.917,0c6.25,-0.833 0.833,-1.667 -11.667,-1.667c-12.5,0 -17.917,0.833 -11.25,1.667Z" style="fill:#a7f3d0;fill-rule:nonzero;"/><path d="M525,778.333c0,1.667 8.75,2.5 20,1.667c31.25,-2.083 34.167,-4.167 6.25,-4.583c-14.583,0 -26.25,0.833 -26.25,2.917Z" style="fill:#a7f3d0;fill-rule:nonzero;"/><path d="M572.917,904.167c11.25,11.25 21.25,20.833 22.5,20.833c1.25,0 -7.083,-9.583 -18.333,-20.833c-11.25,-11.667 -21.25,-20.833 -22.5,-20.833c-1.25,0 7.083,9.167 18.333,20.833Z" style="fill:#a7f3d0;fill-rule:nonzero;"/></g></g><g id="text"><g><path d="M1156.25,292.5c-26.25,15.417 -24.583,46.667 3.333,57.083c20.833,7.917 40.417,-6.667 40.417,-30c0,-21.25 -26.25,-37.5 -43.75,-27.083Z" style="fill:#a7f3d0;fill-rule:nonzero;"/><path d="M1414.583,293.333c-104.167,25.417 -169.167,135.833 -141.667,241.25c57.5,221.25 385.417,177.5 385.417,-51.25c0,-131.667 -115,-221.25 -243.75,-190Zm99.167,55c95.833,31.25 119.583,173.333 40.833,244.167c-93.75,84.583 -234.167,13.75 -228.75,-115.417c4.167,-102.083 89.583,-160.417 187.917,-128.75Z" style="fill:#a7f3d0;fill-rule:nonzero;"/><path d="M2155.417,293.75c-187.5,50.833 -195.417,320 -10.833,377.083c117.917,36.25 237.5,-37.5 255.833,-158.333c21.25,-140 -107.917,-255.417 -245,-218.75Zm109.583,58.333c87.5,39.167 108.333,165.417 38.75,235c-67.5,67.5 -179.167,49.167 -221.25,-36.25c-60.417,-122.5 60,-253.333 182.5,-198.75Z" style="fill:#a7f3d0;fill-rule:nonzero;"/><path d="M2596.25,293.75c-189.167,53.333 -189.583,330.833 -0.417,379.583c179.583,45.833 318.333,-149.167 215.417,-302.917c-42.917,-65 -137.5,-98.333 -215,-76.667Zm115,60.833c50,24.167 76.25,68.333 76.25,128.75c0,168.333 -231.667,200.417 -273.333,37.917c-30.833,-120.833 86.25,-220 197.083,-166.667Z" style="fill:#a7f3d0;fill-rule:nonzero;"/><path d="M2920.833,295.417c-6.25,12.5 -5.833,367.917 0.833,374.583c6.667,6.667 42.917,6.25 48.75,-0.417c2.917,-3.75 5,-47.083 5.417,-130.417l1.25,-125l58.333,70.833c72.5,88.333 59.583,88.333 131.667,0l60,-73.75l4.167,261.667l50,0l1.25,-190.833c1.25,-240.833 12.917,-230.833 -104.167,-89.583c-88.75,108.333 -62.917,109.167 -160,-7.083c-81.667,-97.917 -89.167,-105 -97.5,-90Z" style="fill:#a7f3d0;fill-rule:nonzero;"/><path d="M805,295c-4.167,2.917 -5,43.75 -4.167,190.833l1.25,187.083l66.667,1.25c103.333,1.667 149.583,-8.75 178.75,-40.833c42.5,-47.083 25.417,-135 -29.583,-151.667c-9.167,-2.917 -8.75,-3.75 7.917,-16.25c56.667,-43.333 43.75,-131.25 -22.5,-158.75c-31.667,-12.917 -182.083,-21.667 -198.333,-11.667Zm169.583,60c71.25,35.417 28.333,100.833 -66.25,101.25l-52.083,0l-1.25,-51.667c-0.417,-28.75 0,-54.583 1.25,-57.917c3.75,-10.417 93.75,-3.75 118.333,8.333Zm0.833,157.917c88.75,30 41.667,109.583 -65,110l-54.167,0l-1.25,-57.5l-1.25,-57.083l53.75,0c29.583,0 60,2.083 67.917,4.583Z" style="fill:#a7f3d0;fill-rule:nonzero;"/><path d="M1738.333,295c-4.167,2.917 -5,43.75 -4.167,190.833l1.25,187.083l229.167,0l1.25,-22.5c1.667,-30 3.75,-29.583 -93.75,-29.583l-84.583,0l0,-162.083c0,-180 2.083,-167.083 -28.333,-167.083c-8.333,0 -17.917,1.667 -20.833,3.333Z" style="fill:#a7f3d0;fill-rule:nonzero;"/><path d="M1147.917,393.75l-10.417,10l0,271.25l62.5,0l0,-274.583l-10.833,-8.333c-14.583,-11.667 -28.75,-10.833 -41.25,1.667Z" style="fill:#a7f3d0;fill-rule:nonzero;"/><path d="M661.667,748.75c7.5,0.833 18.75,0.833 25,0c6.25,-0.833 0,-1.667 -13.75,-1.667c-13.75,0 -18.75,0.833 -11.25,1.667Z" style="fill:#a7f3d0;fill-rule:nonzero;"/></g></g></svg>